PathFileType	4	(X/Y/Z)	C:\Users\86182\Documents\cortex\Trimmed_M1_L6.trc
DataRate	CameraRate	NumFrames	NumMarkers	Units	OrigDataRate	OrigDataStartFrame	OrigNumFrames
100.00	100.00	       169	2	mm	100.00	361	       901
Frame#	Time	gripper			box			
		X1	Y1	Z1	X2	Y2	Z2	

361	3.600	197.64401	194.31197	289.09460	200.07411	193.20557	153.59288	
362	3.610	197.73201	194.35776	289.41507	200.00824	193.21637	153.98451	
363	3.620	197.80553	194.40970	289.93634	199.93263	193.24237	154.26671	
364	3.630	197.74806	194.36996	290.25369	200.02649	193.37068	154.77724	
365	3.640	197.91940	194.34328	290.49713	200.07817	193.28137	155.08261	
366	3.650	197.96028	194.32416	290.83936	200.19852	193.33267	155.47266	
367	3.660	197.89822	194.37727	291.18268	200.26793	193.32358	155.73204	
368	3.670	197.90721	194.38568	291.33896	200.16292	193.31264	155.89006	
369	3.680	197.86449	194.36423	291.73572	200.13464	193.32814	155.98662	
370	3.690	197.81953	194.42014	292.01224	199.99626	193.20735	156.34792	
371	3.700	197.87514	194.42522	292.11743	199.89307	193.24883	156.62041	
372	3.710	197.98351	194.42862	292.25046	200.08408	193.31578	156.87888	
373	3.720	198.00453	194.47977	292.34329	200.24193	193.34280	157.15065	
374	3.730	198.02843	194.46977	292.62955	200.23314	193.28157	157.27339	
375	3.740	197.91031	194.45116	292.85507	200.39867	193.42558	157.37648	
376	3.750	197.84612	194.48595	292.91718	200.40123	193.49164	157.48015	
377	3.760	197.89212	194.48047	292.95682	200.31816	193.48358	157.52438	
378	3.770	197.87115	194.45720	293.10632	200.22565	193.46956	157.58003	
379	3.780	197.93526	194.43932	293.16666	200.20789	193.46834	157.58885	
380	3.790	197.88110	194.49535	293.23804	200.11125	193.46352	157.63454	
381	3.800	197.83444	194.51115	293.27621	200.11679	193.46962	157.64297	
382	3.810	197.78291	194.50464	293.30450	200.16924	193.45638	157.66727	
383	3.820	197.73668	194.48701	293.33035	200.17342	193.46173	157.67056	
384	3.830	197.80621	194.46063	293.30945	200.23647	193.48337	157.70773	
385	3.840	197.81625	194.46017	293.30728	200.23647	193.48337	157.70773	
386	3.850	197.82077	194.47310	293.30521	200.23647	193.48337	157.70773	
387	3.860	197.85846	194.44728	293.29236	200.23647	193.48337	157.70773	
388	3.870	197.92241	194.44379	293.26923	200.23019	193.47171	157.68909	
389	3.880	197.93373	194.43867	293.26898	200.26071	193.47324	157.67467	
390	3.890	197.90807	194.45509	293.27298	200.26662	193.46925	157.66371	
391	3.900	197.92749	194.45000	293.26279	200.31096	193.47147	157.64276	
392	3.910	197.92241	194.44379	293.26923	200.26083	193.46033	157.65001	
393	3.920	197.92435	194.45195	293.26385	200.27274	193.48094	157.68253	
394	3.930	197.92253	194.45544	293.26334	200.31516	193.48729	157.67055	
395	3.940	197.89737	194.45944	293.27780	200.28828	193.48311	157.67787	
396	3.950	197.87518	194.47330	293.28543	200.29308	193.48619	157.68100	
397	3.960	197.91927	194.44576	293.27029	200.30447	193.48840	157.66972	
398	3.970	197.93628	194.42876	293.25253	200.28822	193.47832	157.63248	
399	3.980	197.98692	194.44185	293.18976	200.24692	193.46004	157.60725	
400	3.990	197.94939	194.41714	293.15576	200.20789	193.46834	157.58885	
401	4.000	197.87485	194.36034	293.11832	200.20789	193.46834	157.58885	
402	4.010	197.86719	194.35429	293.09143	200.23010	193.46986	157.57784	
403	4.020	197.79065	194.38879	293.02911	200.28786	193.47276	157.55051	
404	4.030	197.79250	194.40640	292.98257	200.27008	193.42827	157.52435	
405	4.040	197.78090	194.39406	293.03928	200.24332	193.47076	157.57127	
406	4.050	197.78175	194.39099	293.02216	200.25206	193.47137	157.56693	
407	4.060	197.78278	194.39040	293.05988	200.23470	193.46991	157.57588	
408	4.070	197.85139	194.37207	293.12421	200.21725	193.46844	157.58488	
409	4.080	197.87167	194.35605	293.12396	200.29428	193.47083	157.55034	
410	4.090	197.88974	194.36552	293.14963	200.26685	193.47052	157.56197	
411	4.100	197.91594	194.35974	293.14310	200.36012	193.47330	157.52026	
412	4.110	197.91258	194.35327	293.14807	200.38547	193.47479	157.50800	
413	4.120	197.97009	194.34654	293.13565	200.41063	193.47630	157.49579	
414	4.130	197.96220	194.35045	293.05667	200.40625	193.47624	157.49765	
415	4.140	197.90205	194.36555	293.05508	200.40625	193.47624	157.49765	
416	4.150	197.86626	194.39566	293.01917	200.39311	193.47612	157.50319	
417	4.160	197.82294	194.38852	293.01105	200.38873	193.47606	157.50504	
418	4.170	197.84975	194.37393	293.06232	200.31030	193.47325	157.54070	
419	4.180	197.82422	194.37212	293.07953	200.23451	193.47017	157.57564	
420	4.190	197.86880	194.35585	293.11487	200.22565	193.46956	157.58003	
421	4.200	197.88701	194.36314	293.14935	200.29358	193.47157	157.54968	
422	4.210	197.84520	194.36412	293.11713	200.28401	193.47197	157.55309	
423	4.220	197.88686	194.35803	293.12808	200.30266	193.47166	157.54584	
424	4.230	197.86574	194.35498	293.10767	200.27602	193.47063	157.55806	
425	4.240	197.83734	194.37642	293.05920	200.30553	193.47346	157.54239	
426	4.250	197.83012	194.37883	293.05777	200.30220	193.47217	157.54539	
427	4.260	197.83484	194.38313	293.03244	200.27121	193.47083	157.55980	
428	4.270	197.81784	194.37906	293.06317	200.28879	193.47177	157.55139	
429	4.280	197.81171	194.38287	293.05988	200.29428	193.47083	157.55034	
430	4.290	197.83960	194.37057	293.07306	200.32292	193.47440	157.53409	
431	4.300	197.86792	194.35600	293.11124	200.30199	193.47241	157.54518	
432	4.310	197.88040	194.36008	293.13843	200.30385	193.47043	157.54694	
433	4.320	197.95969	194.35167	293.11346	200.33662	193.47429	157.52861	
434	4.330	197.92145	194.35231	293.13388	200.33806	193.47281	157.52991	
435	4.340	197.88705	194.35315	293.13107	200.34111	193.47433	157.52673	
436	4.350	197.86375	194.35532	293.08734	200.37318	193.47368	157.51443	
437	4.360	197.84547	194.36620	293.08841	200.38060	193.47523	157.50941	
438	4.370	197.83372	194.37764	293.05850	200.27846	193.47292	157.55415	
439	4.380	197.86157	194.38129	293.04898	200.33594	193.47502	157.52797	
440	4.390	197.82974	194.37750	293.06155	200.31149	193.47202	157.54179	
441	4.400	197.82297	194.38124	293.05634	200.26634	193.47102	157.56152	
442	4.410	197.84906	194.36229	293.08826	200.24767	193.47107	157.56911	
443	4.420	197.84947	194.36362	293.08453	200.24498	193.46901	157.57281	
444	4.430	197.86923	194.35719	293.11118	200.22661	193.46855	157.58092	
445	4.440	197.85857	194.36743	293.13412	200.20789	193.46834	157.58885	
446	4.450	197.88597	194.35265	293.12927	200.26224	193.47047	157.56390	
447	4.460	197.87605	194.35808	293.13116	200.29382	193.47131	157.54990	
448	4.470	197.86914	194.35738	293.12430	200.25323	193.47012	157.56804	
449	4.480	197.85806	194.36578	293.07291	200.26634	193.47102	157.56152	
450	4.490	197.86450	194.35980	293.08328	200.32721	193.47469	157.53197	
451	4.500	197.83612	194.37798	293.05722	200.34891	193.47566	157.52185	
452	4.510	197.83012	194.37883	293.05777	200.39311	193.47612	157.50319	
453	4.520	197.86519	194.36935	293.06561	200.39754	193.47615	157.50133	
454	4.530	197.87929	194.36664	293.06696	200.37993	193.47598	157.50876	
455	4.540	197.86259	194.35657	293.09692	200.35123	193.47319	157.52403	
456	4.550	197.89043	194.35574	293.10870	200.35098	193.47343	157.52382	
457	4.560	197.86955	194.35378	293.11807	200.29312	193.47206	157.54924	
458	4.570	197.86742	194.35747	293.10388	200.26080	193.47197	157.56258	
459	4.580	197.86002	194.35779	293.08890	200.23494	193.46967	157.57610	
460	4.590	197.83559	194.37047	293.07608	200.25206	193.47137	157.56693	
461	4.600	197.82381	194.37079	293.08325	200.25742	193.47066	157.56563	
462	4.610	197.79611	194.38300	293.07016	200.29623	193.47362	157.54601	
463	4.620	197.80872	194.38603	293.05350	200.28259	193.47346	157.55176	
464	4.630	197.81091	194.38022	293.06735	200.30054	193.47391	157.54387	
465	4.640	197.80106	194.38646	293.05777	200.32953	193.47221	157.53416	
466	4.650	197.84241	194.36674	293.08124	200.31366	193.47455	157.53769	
467	4.660	197.85808	194.36172	293.08871	200.27098	193.47107	157.55956	
468	4.670	197.81442	194.37556	293.08105	200.33310	193.47325	157.53137	
469	4.680	197.86978	194.35913	293.10562	200.35893	193.47452	157.51920	
470	4.690	197.86775	194.36501	293.07605	200.36292	193.47505	157.51689	
471	4.700	197.83960	194.37057	293.07306	200.35780	193.47575	157.51810	
472	4.710	197.86115	194.36258	293.07925	200.37666	193.47470	157.51170	
473	4.720	197.85106	194.36996	293.07156	200.27846	193.47292	157.55415	
474	4.730	197.86496	194.37109	293.06400	200.29263	193.47256	157.54880	
475	4.740	197.86517	194.37378	293.05847	200.35007	193.47443	157.52293	
476	4.750	197.85716	194.36163	293.08072	200.32265	193.47464	157.53389	
477	4.760	197.84044	194.36017	293.09979	200.30699	193.47197	157.54369	
478	4.770	197.83908	194.36642	293.10364	200.26634	193.47102	157.56152	
479	4.780	197.83806	194.36998	293.10281	200.26343	193.46922	157.56500	
480	4.790	197.84543	194.37428	293.11978	200.33263	193.47374	157.53094	
481	4.800	197.84467	194.36093	293.09497	200.22148	193.46899	157.58244	
482	4.810	197.83652	194.36009	293.10278	200.23010	193.46986	157.57784	
483	4.820	197.84760	194.37219	293.06970	200.23032	193.46960	157.57806	
484	4.830	197.84335	194.37001	293.07190	200.25206	193.47137	157.56693	
485	4.840	197.85443	194.36699	293.07220	200.30580	193.47321	157.54260	
486	4.850	197.79808	194.38962	293.05142	200.26978	193.47232	157.55846	
487	4.860	197.83842	194.36662	293.08426	200.34064	193.47482	157.52629	
488	4.870	197.86153	194.36389	293.07550	200.32791	193.47394	157.53262	
489	4.880	197.89211	194.35042	293.09146	200.35027	193.47418	157.52318	
490	4.890	197.87096	194.35458	293.10016	200.37318	193.47368	157.51443	
491	4.900	197.90492	194.35371	293.07172	200.28828	193.47227	157.55095	
492	4.910	197.88129	194.34383	293.10941	200.35893	193.47452	157.51920	
493	4.920	197.91013	194.34160	293.09311	200.36292	193.47505	157.51689	
494	4.930	197.87389	194.34987	293.09845	200.40234	193.47572	157.49991	
495	4.940	197.87633	194.35147	293.10370	200.31937	193.47336	157.53687	
496	4.950	197.84563	194.36420	293.08569	200.27507	193.47162	157.55719	
497	4.960	197.83316	194.37566	293.06415	200.31580	193.47232	157.53964	
498	4.970	197.85159	194.37086	293.06393	200.27121	193.47083	157.55980	
499	4.980	197.83482	194.36784	293.08356	200.27989	193.47142	157.55547	
500	4.990	197.86661	194.36105	293.08728	200.27821	193.47318	157.55394	
501	5.000	197.84447	194.36028	293.09680	200.29216	193.47307	157.54836	
502	5.010	197.84540	194.36353	293.08752	200.27870	193.47267	157.55438	
503	5.020	197.83405	194.36522	293.09097	200.22124	193.46925	157.58223	
504	5.030	197.83290	194.36131	293.10208	200.26343	193.46922	157.56500	
505	5.040	197.83018	194.37260	293.08197	200.26634	193.47102	157.56152	
506	5.050	197.85185	194.35464	293.09561	200.28401	193.47197	157.55309	
507	5.060	197.85672	194.36118	293.08600	200.28085	193.47043	157.55635	
508	5.070	197.87106	194.36029	293.10556	200.31485	193.47331	157.53877	
509	5.080	197.87161	194.35335	293.09259	200.31531	193.47281	157.53922	
510	5.090	197.84038	194.37117	293.07352	200.33617	193.47479	157.52817	
511	5.100	197.90935	194.35698	293.10693	200.37271	193.47417	157.51401	
512	5.110	197.85158	194.37578	293.06137	200.39336	193.47588	157.50340	
513	5.120	197.87247	194.37616	293.10489	200.38153	193.47426	157.51028	
514	5.130	197.84956	194.36610	293.09482	200.34464	193.47537	157.52397	
515	5.140	197.86073	194.36125	293.08298	200.33310	193.47325	157.53137	
516	5.150	197.85616	194.35924	293.09155	200.37549	193.47594	157.51062	
517	5.160	197.83186	194.36884	293.10220	200.31198	193.47151	157.54222	
518	5.170	197.86115	194.36258	293.07925	200.25812	193.46991	157.56628	
519	5.180	197.83798	194.36191	293.10089	200.30531	193.47371	157.54218	
520	5.190	197.82928	194.36253	293.10135	200.29697	193.47287	157.54665	
521	5.200	197.81613	194.37123	293.08740	200.24792	193.47083	157.56932	
522	5.210	197.84727	194.36731	293.09576	200.28879	193.47177	157.55139	
523	5.220	197.83537	194.36978	293.07797	200.25302	193.47037	157.56779	
524	5.230	197.84088	194.36613	293.11093	200.31076	193.47276	157.54114	
525	5.240	197.86143	194.36516	293.10333	200.29718	193.47261	157.54689	
526	5.250	197.83121	194.36906	293.08282	200.29263	193.47256	157.54880	
527	5.260	197.81769	194.37709	293.08643	200.28085	193.47043	157.55635	
528	5.270	197.85941	194.35667	293.09601	200.28473	193.47122	157.55376	
529	5.280	197.84087	194.36150	293.09610	200.37666	193.47470	157.51170	
